
<svg version="1.0" xmlns="http://www.w3.org/2000/svg"
 width="1000px" height="1000px" viewBox="0 0 1024.000000 1024.000000"
 preserveAspectRatio="xMidYMid meet">

<g transform="translate(0.000000,1024.000000) scale(0.100000,-0.100000)"
fill="#fff" stroke="none">
<path d="M5028 8403 c-40 -47 -117 -136 -171 -197 -112 -127 -122 -149 -84
-182 23 -19 34 -21 87 -17 33 3 60 2 60 -3 0 -11 -118 -163 -163 -211 -22 -24
-45 -35 -86 -43 -304 -60 -642 -198 -884 -360 -59 -39 -111 -68 -117 -65 -26
16 -151 168 -143 175 4 5 41 18 81 30 103 30 139 73 94 113 -21 19 -509 92
-548 83 -42 -11 -46 -27 -84 -321 -28 -222 -29 -254 -5 -271 31 -23 47 -17
101 42 l52 56 38 -42 c52 -57 93 -113 93 -125 0 -5 -36 -50 -80 -100 -175
-196 -291 -369 -409 -610 -83 -171 -153 -358 -191 -518 l-24 -98 -100 -116
c-172 -199 -176 -204 -169 -227 15 -50 31 -56 141 -56 l105 0 -39 -44 c-250
-286 -244 -277 -202 -330 20 -25 23 -26 135 -26 63 0 114 -2 114 -4 0 -3 9
-56 19 -118 133 -785 618 -1442 1336 -1809 270 -138 526 -217 840 -261 133
-18 503 -16 650 5 1112 156 1989 1016 2145 2105 l12 82 104 0 c113 0 146 10
163 47 14 31 0 58 -76 143 -107 121 -168 192 -175 203 -5 9 20 11 94 9 116 -4
148 8 148 58 0 23 -20 52 -92 132 -169 188 -163 178 -212 350 -122 427 -311
773 -598 1089 -43 48 -78 90 -78 93 0 9 55 81 99 131 l32 37 59 -56 c32 -31
63 -56 69 -56 17 0 51 38 51 58 0 46 -72 517 -81 528 -5 7 -21 15 -34 18 -29
7 -508 -60 -536 -75 -18 -9 -24 -26 -19 -59 3 -23 36 -44 99 -63 102 -30 102
-31 20 -122 -40 -44 -76 -81 -80 -83 -4 -2 -54 28 -111 66 -250 166 -541 287
-850 353 l-103 22 -96 121 -96 121 76 3 c41 2 81 8 88 14 32 26 14 63 -90 184
-56 65 -128 152 -160 191 -99 125 -120 125 -219 6z m332 -833 c176 -60 316
-169 415 -320 80 -124 105 -211 112 -383 l6 -137 30 -26 c25 -21 38 -25 70
-21 82 11 102 60 101 247 0 94 -5 149 -16 183 -9 26 -14 47 -12 47 13 0 98
-49 198 -114 335 -219 573 -478 755 -826 66 -126 138 -305 169 -416 l20 -72
-66 -80 c-37 -44 -95 -112 -129 -151 -69 -78 -77 -107 -40 -141 20 -19 32 -21
120 -18 53 2 97 0 97 -4 0 -8 -98 -122 -197 -231 -60 -66 -70 -110 -33 -147
18 -18 33 -20 140 -20 l120 0 -6 -32 c-34 -203 -70 -343 -125 -481 -45 -112
-110 -247 -118 -246 -3 0 -50 51 -103 112 l-98 112 111 5 c95 4 113 8 125 24
8 11 14 27 14 37 0 9 -48 70 -107 136 -60 65 -128 143 -151 171 -39 47 -42 52
-22 52 34 0 60 19 60 43 -1 39 -152 310 -182 326 -54 30 -74 11 -158 -148 -42
-80 -80 -146 -86 -148 -5 -2 -57 49 -114 114 -58 64 -150 167 -205 228 -55 62
-171 191 -258 288 -87 97 -167 181 -177 187 -72 39 -180 -30 -180 -115 0 -14
-4 -24 -9 -20 -15 8 -95 126 -153 223 -68 114 -106 152 -150 152 -43 0 -67
-25 -144 -150 -57 -93 -109 -172 -146 -219 l-18 -24 0 24 c-1 42 -37 107 -69
123 -36 19 -88 20 -117 3 -12 -7 -45 -40 -75 -74 -30 -34 -148 -169 -264 -299
-115 -130 -245 -277 -288 -327 -96 -112 -110 -122 -128 -101 -7 9 -41 71 -75
137 -71 139 -96 165 -146 151 -30 -9 -41 -24 -115 -164 -45 -85 -83 -160 -83
-166 0 -22 28 -46 54 -46 32 0 45 17 -125 -173 -144 -161 -154 -176 -139 -205
18 -33 57 -42 153 -35 48 4 87 4 87 0 0 -8 -82 -109 -153 -190 l-45 -50 -47
94 c-82 164 -147 366 -185 574 l-17 97 119 0 c113 0 120 1 143 25 46 45 36 65
-124 245 l-112 125 104 5 c114 5 137 16 137 60 0 30 -13 49 -115 165 -38 44
-85 99 -104 123 l-34 43 16 64 c24 98 101 287 173 425 199 382 471 666 857
894 85 50 103 55 92 29 -4 -10 -14 -58 -22 -108 -25 -148 -4 -297 46 -337 34
-26 94 -19 128 14 22 22 24 33 27 153 2 109 7 142 29 206 95 276 295 450 602
523 11 3 81 3 155 2 107 -3 149 -8 200 -26z m-135 -2129 c48 -21 99 -76 114
-123 6 -18 31 -130 56 -248 43 -200 79 -355 91 -390 3 -8 39 70 79 175 41 104
83 201 93 215 26 36 85 63 121 55 34 -7 84 -57 173 -171 35 -45 162 -204 283
-354 397 -492 503 -629 515 -665 10 -30 9 -41 -9 -79 -24 -49 -56 -70 -108
-70 -29 0 -42 8 -72 40 -31 34 -507 631 -660 826 -55 71 -82 88 -107 67 -22
-18 -194 -378 -194 -405 0 -13 48 -227 106 -476 58 -249 108 -475 111 -503 10
-115 -96 -196 -191 -145 -44 23 -65 71 -97 226 -17 82 -70 343 -119 579 -136
660 -228 1075 -241 1091 -14 17 -63 18 -76 2 -6 -7 -43 -168 -83 -358 -40
-190 -93 -437 -117 -550 -24 -113 -57 -268 -73 -345 -16 -77 -39 -183 -50
-235 -11 -52 -32 -150 -45 -218 -32 -157 -53 -189 -132 -206 -38 -9 -97 16
-119 49 -43 66 -43 67 132 807 l68 287 -95 196 c-52 108 -102 201 -112 206
-29 16 -49 2 -102 -68 -79 -105 -611 -773 -653 -820 -33 -38 -43 -43 -80 -43
-24 0 -54 7 -68 16 -48 32 -69 108 -43 157 7 12 101 132 209 267 109 135 248
308 309 385 62 77 138 172 170 210 31 39 87 108 123 155 97 124 121 145 168
144 45 -2 82 -22 107 -60 9 -14 44 -98 78 -187 34 -89 68 -174 76 -189 14 -27
15 -26 32 60 31 149 125 556 135 583 16 42 64 91 107 110 52 24 138 24 190 0z"/>
<path d="M5006 7284 c-297 -72 -452 -416 -314 -700 177 -365 709 -360 883 8
49 104 62 194 42 293 -9 42 -30 106 -46 142 -36 76 -130 178 -199 216 -102 55
-242 71 -366 41z"/>
<path d="M3845 6835 c-18 -17 -25 -35 -25 -64 0 -36 9 -49 105 -154 58 -63
112 -118 121 -121 61 -23 124 17 124 79 0 30 -11 47 -70 110 -38 42 -81 91
-96 111 -51 66 -117 82 -159 39z"/>
<path d="M6268 6799 c-110 -115 -178 -199 -178 -220 0 -28 26 -75 45 -83 32
-12 73 -6 98 14 14 11 69 68 121 125 76 83 96 111 96 134 0 42 -37 80 -83 88
-37 6 -41 3 -99 -58z"/>
<path d="M3614 6468 c-23 -11 -44 -48 -44 -76 0 -9 8 -30 19 -47 26 -43 151
-175 165 -175 7 0 30 18 51 40 21 22 45 40 51 40 7 0 15 4 19 10 9 14 -155
191 -192 206 -37 16 -41 16 -69 2z"/>
<path d="M6555 6462 c-16 -11 -63 -55 -104 -98 -40 -43 -181 -189 -312 -322
-231 -235 -239 -245 -239 -283 0 -54 34 -89 87 -89 36 0 49 11 308 273 388
391 405 409 405 445 0 70 -84 112 -145 74z"/>
<path d="M4122 6150 c-260 -26 -256 -21 -271 -337 -12 -235 -9 -259 31 -287
53 -37 64 -20 98 153 16 85 31 155 33 158 3 2 36 -31 76 -73 l71 -76 0 -69 c0
-57 3 -70 19 -79 33 -17 40 -12 68 46 22 43 32 54 46 50 15 -4 18 0 13 18 -5
21 2 26 60 51 53 23 65 31 62 49 -4 29 -44 46 -109 46 l-56 0 -66 80 c-37 43
-67 83 -67 87 0 5 66 28 146 52 80 24 155 52 166 61 19 15 20 18 5 47 -9 17
-24 33 -32 37 -24 9 -98 5 -293 -14z"/>
<path d="M3316 5869 c-20 -16 -26 -29 -26 -61 0 -36 7 -47 71 -113 39 -40 78
-75 88 -78 29 -7 82 16 98 44 25 41 9 74 -70 155 -81 82 -111 92 -161 53z"/>
<path d="M6839 5867 c-15 -12 -50 -48 -78 -80 -58 -66 -65 -100 -28 -143 19
-22 32 -27 63 -26 35 1 46 9 112 78 60 64 72 83 72 111 0 73 -85 109 -141 60z"/>
<path d="M5898 2506 c-124 -36 -214 -110 -269 -221 -27 -55 -33 -79 -37 -159
-5 -109 10 -170 65 -253 45 -69 93 -109 173 -147 59 -28 74 -31 165 -31 108 0
214 26 278 69 l32 22 3 175 c2 155 0 178 -14 190 -13 11 -53 14 -161 14 -165
0 -173 -4 -173 -81 0 -57 33 -84 100 -84 43 0 49 -3 54 -25 11 -45 -3 -74 -43
-85 -50 -14 -81 -13 -132 5 -127 45 -184 190 -124 312 36 72 88 106 172 111
56 4 74 1 125 -24 45 -22 63 -26 76 -18 25 16 82 93 82 111 0 26 -67 80 -127
103 -72 27 -182 34 -245 16z"/>
<path d="M6785 2506 c-267 -65 -400 -388 -253 -618 44 -69 129 -143 196 -169
45 -19 77 -23 152 -24 87 0 101 3 167 34 171 80 275 268 244 438 -45 243 -273
396 -506 339z m180 -207 c86 -40 131 -118 122 -212 -12 -138 -148 -230 -271
-183 -47 18 -110 79 -126 122 -17 45 -12 134 11 181 19 39 75 89 119 106 34
12 103 6 145 -14z"/>
<path d="M2957 2492 c-12 -13 -17 -37 -17 -75 0 -85 16 -97 130 -97 l90 0 0
-290 c0 -340 -3 -330 98 -330 102 0 97 -17 100 324 l3 296 82 0 c46 0 93 6
107 13 22 11 25 20 28 77 5 103 15 100 -323 100 -260 0 -283 -1 -298 -18z"/>
<path d="M3730 2490 c-19 -19 -20 -33 -20 -388 0 -427 -6 -402 96 -402 89 0
93 5 100 143 l7 117 26 -1 c22 0 38 -18 95 -105 103 -155 102 -154 186 -154
57 0 74 4 90 20 11 11 20 26 20 34 0 8 -36 62 -80 120 -44 58 -80 107 -80 109
0 2 21 17 48 34 138 86 144 293 12 417 -69 64 -117 76 -317 76 -150 0 -165 -2
-183 -20z m298 -169 c75 -15 112 -70 90 -133 -14 -41 -55 -58 -138 -58 l-70 0
0 100 0 100 38 0 c20 -1 56 -5 80 -9z"/>
<path d="M4510 2490 c-19 -19 -20 -33 -20 -388 0 -433 -7 -407 105 -400 36 2
71 10 77 16 10 10 14 103 16 382 3 361 2 370 -18 390 -29 29 -131 29 -160 0z"/>
<path d="M4914 2502 c-31 -20 -34 -54 -34 -404 0 -416 -4 -398 93 -398 99 0
107 9 107 134 l0 104 103 4 c87 3 111 7 159 31 65 32 109 84 134 160 46 139
-48 320 -189 362 -54 16 -351 22 -373 7z m338 -209 c34 -32 43 -72 28 -118
-16 -47 -53 -65 -135 -65 l-65 0 0 111 0 112 72 -7 c59 -5 78 -11 100 -33z"/>
</g>
</svg>
